<?xml version="1.0" standalone="no"?>
<!DOCTYPE svg PUBLIC "-//W3C//DTD SVG 1.1//EN" "http://www.w3.org/Graphics/SVG/1.1/DTD/svg11.dtd" >
<svg>
<metadata>
Created by FontForge 20120731 at Mon Jun 27 06:00:45 2016
 By www
Copyright 1990-1999 as an unpublished work by Bitstream Inc.  All rights reserved.  Confidential.
</metadata>
<defs>
<font id="FuturaBT-LightCondensed" horiz-adv-x="500" >
  <font-face 
    font-family="Futura"
    font-weight="300"
    font-stretch="condensed"
    units-per-em="1000"
    panose-1="0 0 0 0 0 0 0 0 0 0"
    ascent="800"
    descent="-200"
    x-height="479"
    cap-height="713"
    bbox="-110 -236 1000 963"
    underline-thickness="40"
    underline-position="-76"
    stemh="50"
    stemv="59"
    unicode-range="U+0020-FB02"
  />
<missing-glyph horiz-adv-x="194" 
 />
    <glyph glyph-name=".notdef" horiz-adv-x="194" 
 />
    <glyph glyph-name="space" unicode=" " horiz-adv-x="194" 
 />
    <glyph glyph-name="exclam" unicode="!" horiz-adv-x="250" 
d="M125 80c26 0 45 -19 45 -44c0 -24 -20 -45 -45 -45c-24 0 -45 22 -45 45c0 25 20 44 45 44zM94 713h62v-541h-62v541z" />
    <glyph glyph-name="quotedbl" unicode="&#x22;" horiz-adv-x="269" 
d="M91 700v-270h-42v270h42zM220 700v-270h-42v270h42z" />
    <glyph glyph-name="numbersign" unicode="#" horiz-adv-x="769" 
d="M447 710l-85 -243h132l86 243h54l-85 -243h157l-15 -44h-158l-49 -138h170l-15 -44h-171l-85 -241h-55l86 241h-132l-87 -241h-54l85 241h-163l15 44h164l49 138h-176l14 44h178l86 243h54zM478 423h-132l-48 -138h131z" />
    <glyph glyph-name="dollar" unicode="$" horiz-adv-x="389" 
d="M78 111c26 -27 62 -48 106 -48c67 0 117 52 117 117c0 36 -9 64 -30 88c-29 33 -68 55 -104 80c-81 57 -124 103 -124 185c0 78 37 138 101 164v89h35v-80c10 1 19 2 28 2h10v78h35v-81c30 -5 60 -18 92 -40l-32 -49c-32 24 -63 35 -100 35c-61 0 -108 -47 -108 -110
c0 -57 32 -92 89 -134c38 -28 82 -52 120 -92c32 -34 50 -79 50 -124c0 -82 -41 -146 -111 -176v-90h-35v81c-11 -2 -24 -4 -38 -4v-77h-35v81c-38 7 -72 26 -108 59z" />
    <glyph glyph-name="percent" unicode="%" horiz-adv-x="644" 
d="M154 -9l286 731h49l-286 -731h-49zM31 503c0 147 32 219 107 219s109 -72 109 -219s-34 -218 -109 -218s-107 71 -107 218zM139 676c-41 0 -58 -56 -58 -172c0 -115 17 -173 58 -173s58 57 58 173s-17 172 -58 172zM396 209c0 147 33 219 108 219s108 -72 108 -219
s-33 -218 -108 -218s-108 71 -108 218zM504 382c-41 0 -58 -56 -58 -172c0 -115 17 -173 58 -173s58 57 58 173s-17 172 -58 172z" />
    <glyph glyph-name="ampersand" unicode="&#x26;" horiz-adv-x="454" 
d="M340 49c-39 -37 -81 -56 -127 -56c-93 0 -164 81 -164 186c0 79 35 148 106 210c-40 74 -67 130 -67 181c0 83 55 138 140 138c69 0 119 -54 119 -128c0 -63 -40 -129 -121 -199l130 -239c19 19 36 38 53 60l40 -40c-20 -25 -41 -49 -66 -72l48 -90h-66zM184 339
c-51 -45 -77 -99 -77 -155c0 -78 50 -134 111 -134c32 0 64 17 95 49zM200 428c61 59 91 111 91 152c0 44 -30 75 -71 75c-43 0 -74 -34 -74 -84c0 -34 19 -81 54 -143z" />
    <glyph glyph-name="quoteright" unicode="&#x2019;" horiz-adv-x="194" 
d="M23 508l90 214l63 -31l-110 -206z" />
    <glyph glyph-name="parenleft" unicode="(" horiz-adv-x="245" 
d="M177 775l56 -25c-75 -145 -114 -300 -114 -463s39 -317 114 -462l-56 -25c-80 163 -120 323 -120 487s40 325 120 488z" />
    <glyph glyph-name="parenright" unicode=")" horiz-adv-x="245" 
d="M68 -200l-55 25c75 145 113 300 113 462s-38 318 -113 463l55 25c80 -163 120 -324 120 -488s-40 -324 -120 -487z" />
    <glyph glyph-name="asterisk" unicode="*" horiz-adv-x="347" 
d="M153 543l-79 -51l-16 32l82 52l-82 53l17 32l78 -51v103h40v-103l78 51l17 -32l-83 -53l82 -52l-16 -32l-78 51v-103h-40v103z" />
    <glyph glyph-name="plus" unicode="+" horiz-adv-x="833" 
d="M436 595v-278h273v-39h-273v-278h-39v278h-273v39h273v278h39z" />
    <glyph glyph-name="comma" unicode="," horiz-adv-x="194" 
d="M-6 -130l90 214l63 -31l-110 -206z" />
    <glyph glyph-name="hyphen" unicode="-" horiz-adv-x="269" 
d="M38 273h192v-54h-192v54z" />
    <glyph glyph-name="period" unicode="." horiz-adv-x="194" 
d="M97 80c26 0 45 -19 45 -44c0 -24 -20 -45 -45 -45c-24 0 -45 22 -45 45c0 25 20 44 45 44z" />
    <glyph glyph-name="slash" unicode="/" horiz-adv-x="278" 
d="M247 722h55l-304 -815h-55z" />
    <glyph glyph-name="zero" unicode="0" horiz-adv-x="389" 
d="M35 356c0 246 48 366 159 366c110 0 159 -121 159 -366s-49 -365 -159 -365c-111 0 -159 120 -159 365zM194 662c-67 0 -93 -103 -93 -313c0 -199 28 -298 93 -298c67 0 94 101 94 306s-27 305 -94 305z" />
    <glyph glyph-name="one" unicode="1" horiz-adv-x="389" 
d="M169 654h-93l15 59h141v-713h-63v654z" />
    <glyph glyph-name="two" unicode="2" horiz-adv-x="389" 
d="M105 521h-62v10c0 124 53 191 144 191c82 0 145 -65 145 -163c0 -104 -78 -262 -204 -499h197v-60h-296c149 281 239 458 239 557c0 65 -33 105 -80 105c-54 0 -83 -43 -83 -128v-13z" />
    <glyph glyph-name="three" unicode="3" horiz-adv-x="389" 
d="M109 192v-15c0 -84 25 -125 78 -125c56 0 87 52 87 152c0 112 -29 156 -124 156c-7 0 -15 -1 -23 -1v60c9 -1 18 -1 26 -1c83 0 115 39 115 138c0 68 -27 104 -77 104c-45 0 -73 -36 -73 -103v-7h-64c3 113 51 172 139 172c85 0 138 -63 138 -173
c0 -88 -29 -142 -83 -157c62 -23 90 -86 90 -188c0 -136 -59 -213 -154 -213c-87 0 -140 65 -140 185v16h65z" />
    <glyph glyph-name="four" unicode="4" horiz-adv-x="389" 
d="M238 194h-198v59l191 460h67v-463h52v-56h-52v-194h-60v194zM97 250h141v117c0 82 4 176 13 284c-15 -43 -32 -89 -51 -138z" />
    <glyph glyph-name="five" unicode="5" horiz-adv-x="389" 
d="M75 91c35 -25 67 -37 98 -37c66 0 107 55 107 152c0 108 -42 166 -111 166c-37 0 -71 -11 -103 -34l45 375h215v-58h-163l-26 -226c17 3 31 5 44 5c92 0 164 -82 164 -216c0 -142 -68 -227 -169 -227c-42 0 -81 11 -121 34z" />
    <glyph glyph-name="six" unicode="6" horiz-adv-x="389" 
d="M117 461l106 252h67l-149 -344c26 22 51 32 82 32c75 0 130 -74 130 -199c0 -133 -58 -211 -145 -211c-96 0 -154 73 -154 204c0 87 23 172 63 266zM203 346c-53 0 -86 -49 -86 -141c0 -103 33 -157 88 -157c52 0 84 52 84 149c0 98 -31 149 -86 149z" />
    <glyph glyph-name="seven" unicode="7" horiz-adv-x="389" 
d="M277 655h-215v58h296l-225 -712h-64z" />
    <glyph glyph-name="eight" unicode="8" horiz-adv-x="389" 
d="M258 394c61 -24 88 -87 88 -194c0 -134 -58 -209 -152 -209s-151 74 -151 209c0 107 27 170 88 194c-46 18 -75 73 -75 154c0 111 52 174 138 174c85 0 139 -63 139 -174c0 -81 -29 -136 -75 -154zM194 48c54 0 88 52 88 148c0 111 -32 168 -88 168s-88 -52 -88 -153
c0 -106 34 -163 88 -163zM193 665c-44 0 -76 -41 -76 -116c0 -84 29 -128 78 -128c47 0 77 44 77 122c0 80 -28 122 -79 122z" />
    <glyph glyph-name="nine" unicode="9" horiz-adv-x="389" 
d="M286 252l-106 -252h-67l149 344c-25 -22 -51 -32 -80 -32c-78 0 -132 73 -132 198c0 134 59 212 146 212c96 0 153 -73 153 -204c0 -87 -23 -172 -63 -266zM200 367c53 0 86 50 86 141c0 103 -33 157 -88 157c-53 0 -84 -53 -84 -153c0 -95 32 -145 86 -145z" />
    <glyph glyph-name="colon" unicode=":" horiz-adv-x="194" 
d="M97 80c26 0 45 -19 45 -44c0 -24 -20 -45 -45 -45c-24 0 -45 22 -45 45c0 25 20 44 45 44zM97 364c26 0 45 -20 45 -45c0 -24 -20 -44 -45 -44c-24 0 -45 21 -45 44c0 25 20 45 45 45z" />
    <glyph glyph-name="semicolon" unicode=";" horiz-adv-x="194" 
d="M-6 -130l90 214l63 -31l-110 -206zM100 367c26 0 45 -20 45 -45c0 -24 -20 -45 -45 -45c-24 0 -44 22 -44 45c0 25 19 45 44 45z" />
    <glyph glyph-name="less" unicode="&#x3c;" horiz-adv-x="833" 
d="M704 505l-510 -207l510 -207v-43l-575 235v30l575 236v-44z" />
    <glyph glyph-name="equal" unicode="=" horiz-adv-x="833" 
d="M709 406v-39h-585v39h585zM709 229v-39h-585v39h585z" />
    <glyph glyph-name="greater" unicode="&#x3e;" horiz-adv-x="833" 
d="M704 313v-30l-575 -235v43l510 207l-510 207v44z" />
    <glyph glyph-name="question" unicode="?" horiz-adv-x="319" 
d="M100 404h38c72 0 84 37 84 147c0 83 -8 118 -58 118c-37 0 -56 -27 -56 -80v-55h-60v47c0 98 32 141 117 141c88 0 120 -52 120 -165c0 -142 -29 -205 -122 -208v-172h-63v227zM134 80c26 0 45 -19 45 -44c0 -24 -20 -45 -45 -45c-24 0 -45 22 -45 45c0 25 20 44 45 44z
" />
    <glyph glyph-name="at" unicode="@" horiz-adv-x="1000" 
d="M595 228l31 124c-14 64 -53 99 -114 99c-99 0 -175 -102 -175 -233c0 -76 40 -120 106 -120c72 0 132 51 152 130zM636 404l30 63h39l-67 -270c-7 -26 -10 -44 -10 -53c0 -28 20 -45 57 -45c31 0 66 13 99 37c64 47 109 139 109 239c0 176 -140 296 -354 296
c-110 0 -203 -32 -278 -94c-100 -83 -151 -194 -151 -328c0 -211 154 -350 397 -350c103 0 214 33 304 94l14 -22c-95 -71 -201 -107 -316 -107c-124 0 -225 31 -303 90c-99 75 -147 173 -147 301c0 106 34 202 97 279c93 114 226 174 388 174c108 0 205 -32 270 -82
c83 -64 127 -149 127 -246c0 -111 -43 -204 -119 -264c-44 -35 -97 -54 -149 -54c-62 0 -94 24 -94 71c0 6 1 12 2 19c-32 -58 -84 -90 -142 -90c-100 0 -153 55 -153 159c0 151 102 266 225 266c62 0 105 -28 125 -83z" />
    <glyph glyph-name="A" unicode="A" horiz-adv-x="366" 
d="M156 713h62l145 -713h-66l-28 144h-163l-25 -144h-67zM175 533l-59 -332h141l-58 333c-4 23 -8 58 -11 106c-3 -37 -7 -73 -13 -107z" />
    <glyph glyph-name="B" unicode="B" horiz-adv-x="403" 
d="M72 713h106c110 0 160 -57 160 -182c0 -93 -34 -150 -91 -163c74 -21 106 -78 106 -178c0 -127 -59 -190 -177 -190h-104v713zM137 338v-280h30c90 0 119 33 119 136c0 98 -33 144 -108 144h-41zM137 655v-259h40c69 0 95 39 95 130s-24 129 -92 129h-43z" />
    <glyph glyph-name="C" unicode="C" horiz-adv-x="329" 
d="M320 19c-28 -16 -60 -24 -93 -24c-130 0 -190 117 -190 356c0 243 69 366 197 366c31 0 60 -6 88 -20v-70c-29 19 -54 29 -81 29c-95 0 -136 -97 -136 -296c0 -206 31 -303 132 -303c19 0 37 4 54 12c9 4 19 10 29 18v-68z" />
    <glyph glyph-name="D" unicode="D" horiz-adv-x="407" 
d="M72 713h81c175 0 217 -105 217 -359c0 -250 -51 -354 -219 -354h-79v713zM137 654v-594h13c126 0 153 84 153 285c0 218 -21 309 -149 309h-17z" />
    <glyph glyph-name="E" unicode="E" horiz-adv-x="345" 
d="M72 713h224v-60h-159v-257h157v-58h-157v-278h164v-60h-229v713z" />
    <glyph glyph-name="F" unicode="F" horiz-adv-x="324" 
d="M72 713h224v-60h-159v-253h157v-57h-157v-343h-65v713z" />
    <glyph glyph-name="G" unicode="G" horiz-adv-x="382" 
d="M353 589l-60 -25c-15 63 -44 96 -85 96c-71 0 -104 -100 -104 -303c0 -205 26 -306 103 -306c58 0 82 51 82 154v108h-99v60h163v-160c0 -149 -50 -223 -149 -223c-120 0 -167 120 -167 366c0 245 54 366 175 366c65 0 116 -46 141 -133z" />
    <glyph glyph-name="H" unicode="H" horiz-adv-x="444" 
d="M72 713h65v-287h170v287h65v-713h-65v369h-170v-369h-65v713z" />
    <glyph glyph-name="I" unicode="I" horiz-adv-x="208" 
d="M72 0v713h65v-713h-65z" />
    <glyph glyph-name="J" unicode="J" horiz-adv-x="257" 
d="M3 76c18 -18 41 -27 65 -27c44 0 53 31 53 102v562h64v-569c0 -106 -26 -154 -104 -154c-26 0 -52 5 -78 17v69z" />
    <glyph glyph-name="K" unicode="K" horiz-adv-x="354" 
d="M288 713h66l-154 -342l154 -371h-69l-148 368zM72 713h65v-713h-65v713z" />
    <glyph glyph-name="L" unicode="L" horiz-adv-x="287" 
d="M72 713h65v-654h153v-59h-218v713z" />
    <glyph glyph-name="M" unicode="M" horiz-adv-x="528" 
d="M115 713h58l72 -462c3 -17 9 -74 20 -172c5 55 13 113 23 172l77 462h56l87 -713h-60l-48 467c-3 32 -8 83 -13 155c-6 -69 -12 -129 -21 -180l-74 -442h-56l-71 460c-6 38 -15 91 -21 162c-8 -98 -12 -154 -14 -168l-52 -454h-59z" />
    <glyph glyph-name="N" unicode="N" horiz-adv-x="440" 
d="M72 713h56l161 -488c4 -12 17 -61 39 -150c-10 85 -15 174 -15 269v369h56v-713h-56l-157 480c-17 52 -31 105 -44 159c11 -104 16 -193 16 -267v-372h-56v713z" />
    <glyph glyph-name="O" unicode="O" horiz-adv-x="428" 
d="M37 356c0 246 54 366 177 366s177 -120 177 -366s-54 -365 -177 -365s-177 119 -177 365zM214 662c-78 0 -110 -100 -110 -305s32 -306 110 -306c79 0 110 100 110 306c0 205 -31 305 -110 305z" />
    <glyph glyph-name="P" unicode="P" horiz-adv-x="363" 
d="M72 713h91c124 0 177 -58 177 -192c0 -123 -52 -179 -168 -179h-35v-342h-65v713zM137 655v-255h36c74 0 102 39 102 130c0 86 -33 125 -107 125h-31z" />
    <glyph glyph-name="Q" unicode="Q" horiz-adv-x="428" 
d="M295 19c-25 -19 -51 -28 -81 -28c-123 0 -177 119 -177 365s54 366 177 366s177 -120 177 -366c0 -143 -19 -241 -57 -297l51 -78l-45 -30zM264 70l-65 101l44 29l57 -91c15 44 24 127 24 248c0 205 -31 305 -110 305c-78 0 -110 -100 -110 -305c0 -206 30 -306 112 -306
c19 0 34 6 48 19z" />
    <glyph glyph-name="R" unicode="R" horiz-adv-x="382" 
d="M72 713h79c134 0 188 -49 188 -187c0 -113 -42 -170 -132 -177l155 -349h-68l-157 368v-368h-65v713zM137 653v-258h31c73 0 104 40 104 128c0 91 -30 130 -104 130h-31z" />
    <glyph glyph-name="S" unicode="S" horiz-adv-x="366" 
d="M44 110c35 -39 73 -58 113 -58c66 0 114 52 114 129c0 33 -9 60 -27 83c-29 38 -70 61 -106 90c-68 55 -102 108 -102 182c0 108 72 186 166 186c38 0 75 -13 110 -39v-84c-29 41 -66 62 -107 62c-61 0 -104 -47 -104 -119c0 -80 43 -113 112 -164
c76 -56 123 -99 123 -193c0 -116 -75 -194 -173 -194c-43 0 -82 11 -119 34v85z" />
    <glyph glyph-name="T" unicode="T" horiz-adv-x="303" 
d="M118 655h-111v58h287v-58h-111v-655h-65v655z" />
    <glyph glyph-name="U" unicode="U" horiz-adv-x="446" 
d="M71 713h65v-510c0 -106 15 -154 86 -154s86 48 86 154v510h65v-510c0 -146 -33 -212 -151 -212s-151 66 -151 212v510z" />
    <glyph glyph-name="V" unicode="V" horiz-adv-x="375" 
d="M14 713h65l93 -492c4 -20 11 -65 19 -135c3 50 11 94 18 134l89 493h66l-145 -713h-58z" />
    <glyph glyph-name="W" unicode="W" horiz-adv-x="565" 
d="M15 713h65l66 -446c8 -54 13 -117 16 -191c5 54 13 111 22 170l74 467h61l75 -472c8 -48 13 -102 17 -163c11 98 16 154 18 168l65 467h64l-118 -713h-57l-77 472c-9 55 -17 110 -18 164c-4 -63 -11 -117 -18 -161l-80 -475h-59z" />
    <glyph glyph-name="X" unicode="X" horiz-adv-x="343" 
d="M140 362l-131 351h68l73 -215c5 -13 13 -44 24 -92c8 35 17 68 26 96l71 211h66l-129 -350l135 -363h-69l-76 224c-9 26 -17 55 -25 89c-8 -33 -18 -64 -28 -94l-74 -219h-71z" />
    <glyph glyph-name="Y" unicode="Y" horiz-adv-x="329" 
d="M132 311l-134 402h68l100 -328l98 328h66l-133 -404v-309h-65v311z" />
    <glyph glyph-name="Z" unicode="Z" horiz-adv-x="306" 
d="M216 654h-179v59h261l-205 -653h181v-60h-264z" />
    <glyph glyph-name="bracketleft" unicode="[" horiz-adv-x="245" 
d="M73 764h155v-54h-96v-844h96v-53h-155v951z" />
    <glyph glyph-name="backslash" unicode="\" horiz-adv-x="278" 
d="M31 722l303 -815h-54l-304 815h55z" />
    <glyph glyph-name="bracketright" unicode="]" horiz-adv-x="245" 
d="M172 -187h-155v53h96v845h-96v53h155v-951z" />
    <glyph glyph-name="asciicircum" unicode="^" horiz-adv-x="1000" 
d="M528 712l264 -272h-61l-231 229l-232 -229h-61l263 272h58z" />
    <glyph glyph-name="underscore" unicode="_" 
d="M500 -197v-39h-500v39h500z" />
    <glyph glyph-name="quoteleft" unicode="&#x2018;" horiz-adv-x="194" 
d="M176 699l-90 -214l-63 31l110 206z" />
    <glyph glyph-name="a" unicode="a" horiz-adv-x="352" 
d="M238 0v44c-16 -34 -47 -53 -85 -53c-87 0 -117 85 -117 260c0 157 34 234 117 234c37 0 65 -18 84 -51v45h58v-479h-57zM96 237c0 -135 14 -197 73 -197c56 0 71 64 71 197s-15 198 -71 198c-59 0 -73 -64 -73 -198z" />
    <glyph glyph-name="b" unicode="b" horiz-adv-x="352" 
d="M57 757h59v-321c17 32 46 49 83 49c86 0 117 -81 117 -246c0 -167 -35 -248 -118 -248c-38 0 -68 19 -84 53v-44h-57v757zM183 40c59 0 73 63 73 197s-14 198 -73 198c-56 0 -71 -65 -71 -198s15 -197 71 -197z" />
    <glyph glyph-name="c" unicode="c" horiz-adv-x="264" 
d="M248 467v-69c-18 22 -36 32 -59 32c-63 0 -88 -66 -88 -202c0 -118 29 -178 86 -178c25 0 45 12 60 36v-70c-22 -15 -44 -22 -70 -22c-81 0 -136 83 -136 237c0 169 50 254 148 254c22 0 43 -7 59 -18z" />
    <glyph glyph-name="d" unicode="d" horiz-adv-x="352" 
d="M238 0v44c-16 -34 -47 -53 -85 -53c-87 0 -117 85 -117 260c0 157 34 234 117 234c37 0 66 -17 83 -49v321h59v-757h-57zM96 237c0 -135 14 -197 73 -197c56 0 71 64 71 197s-15 198 -71 198c-59 0 -73 -64 -73 -198z" />
    <glyph glyph-name="e" unicode="e" horiz-adv-x="322" 
d="M299 225h-209v-16c0 -109 30 -167 77 -167c38 0 67 42 69 117h57c-5 -108 -56 -168 -127 -168c-89 0 -134 82 -134 245c0 164 53 252 137 252c85 0 130 -83 130 -247v-16zM243 274c-1 105 -29 160 -72 160c-46 0 -77 -54 -81 -160h153z" />
    <glyph glyph-name="f" unicode="f" horiz-adv-x="192" 
d="M64 430h-55v49h55v151c0 92 25 135 88 135c16 0 34 -2 54 -8v-68c-15 14 -29 21 -44 21c-36 0 -39 -28 -39 -86v-145h83v-49h-83v-430h-59v430z" />
    <glyph glyph-name="g" unicode="g" horiz-adv-x="352" 
d="M47 -50h54v-7c0 -59 23 -88 67 -88c49 0 68 32 68 101v85c-16 -31 -44 -47 -81 -47c-92 0 -119 83 -119 259c0 156 35 232 117 232c37 0 65 -18 84 -51l-1 45h59v-479c0 -61 -1 -104 -16 -132c-22 -41 -59 -63 -110 -63c-76 0 -122 50 -122 137v8zM96 237
c0 -135 14 -197 73 -197c56 0 71 64 71 197s-15 198 -71 198c-59 0 -73 -64 -73 -198z" />
    <glyph glyph-name="h" unicode="h" horiz-adv-x="356" 
d="M57 757h59v-322c22 34 54 50 92 50c71 0 97 -50 97 -153v-332h-59v341c0 69 -12 98 -59 98c-46 0 -71 -41 -71 -120v-319h-59v757z" />
    <glyph glyph-name="i" unicode="i" horiz-adv-x="174" 
d="M56 479h60v-479h-60v479zM86 669c26 0 45 -20 45 -44c0 -23 -20 -44 -45 -44c-24 0 -44 21 -44 45s19 43 44 43z" />
    <glyph glyph-name="j" unicode="j" horiz-adv-x="174" 
d="M56 479h60v-662h-60v662zM86 669c26 0 45 -20 45 -44c0 -23 -20 -44 -45 -44c-24 0 -44 21 -44 45s19 43 44 43z" />
    <glyph glyph-name="k" unicode="k" horiz-adv-x="326" 
d="M57 757h59v-757h-59v757zM239 479h66l-128 -208l171 -271h-70l-161 267z" />
    <glyph glyph-name="l" unicode="l" horiz-adv-x="174" 
d="M56 757h60v-757h-60v757z" />
    <glyph glyph-name="m" unicode="m" horiz-adv-x="545" 
d="M57 479h59v-44c22 34 54 50 92 50c41 0 70 -20 88 -61c24 41 59 61 101 61c71 0 97 -50 97 -153v-332h-59v341c0 69 -12 98 -59 98c-46 0 -71 -41 -71 -120v-319h-59v341c0 69 -12 98 -59 98c-46 0 -71 -41 -71 -120v-319h-59v479z" />
    <glyph glyph-name="n" unicode="n" horiz-adv-x="356" 
d="M57 479h59v-44c22 34 54 50 92 50c71 0 97 -50 97 -153v-332h-59v341c0 69 -12 98 -59 98c-46 0 -71 -41 -71 -120v-319h-59v479z" />
    <glyph glyph-name="o" unicode="o" horiz-adv-x="338" 
d="M32 240c0 166 47 249 138 249c88 0 136 -84 136 -249s-47 -249 -136 -249c-91 0 -138 83 -138 249zM169 438c-55 0 -76 -64 -76 -198s21 -199 76 -199c52 0 76 65 76 198s-24 199 -76 199z" />
    <glyph glyph-name="p" unicode="p" horiz-adv-x="352" 
d="M59 479h59v-40c22 31 49 46 83 46c87 0 117 -81 117 -246c0 -167 -35 -248 -118 -248c-32 0 -60 14 -82 42v-225h-59v671zM185 40c59 0 72 63 72 197s-13 198 -72 198c-56 0 -71 -65 -71 -198s15 -197 71 -197z" />
    <glyph glyph-name="q" unicode="q" horiz-adv-x="352" 
d="M234 -192v225c-23 -28 -50 -42 -82 -42c-87 0 -118 85 -118 260c0 157 34 234 117 234c34 0 61 -15 83 -46v40h59v-671h-59zM94 237c0 -135 14 -197 73 -197c56 0 71 64 71 197s-15 198 -71 198c-59 0 -73 -64 -73 -198z" />
    <glyph glyph-name="r" unicode="r" horiz-adv-x="208" 
d="M57 479h59v-65c18 45 44 68 79 71v-64c-65 -4 -79 -44 -79 -135v-286h-59v479z" />
    <glyph glyph-name="s" unicode="s" horiz-adv-x="264" 
d="M32 94c30 -34 61 -50 91 -50c44 0 75 31 75 75c0 43 -32 68 -80 109c-56 48 -92 82 -92 142c0 68 49 117 118 117c29 0 57 -8 85 -25v-61c-25 24 -53 36 -79 36c-39 0 -68 -28 -68 -65c0 -40 29 -63 72 -99c62 -52 101 -88 101 -153c0 -76 -54 -131 -128 -131
c-34 0 -68 12 -95 35v70z" />
    <glyph glyph-name="t" unicode="t" horiz-adv-x="201" 
d="M67 430h-50v49h50v134h59v-134h79v-49h-79v-430h-59v430z" />
    <glyph glyph-name="u" unicode="u" horiz-adv-x="355" 
d="M52 479h59v-314c0 -82 15 -120 67 -120s66 38 66 120v314h59v-324c0 -111 -36 -164 -125 -164s-126 53 -126 164v324z" />
    <glyph glyph-name="v" unicode="v" horiz-adv-x="299" 
d="M12 479h62l61 -307c6 -32 13 -73 19 -123c5 33 14 75 24 123l63 307h60l-115 -479h-65z" />
    <glyph glyph-name="w" unicode="w" horiz-adv-x="458" 
d="M14 479h60l43 -254c9 -52 16 -109 23 -168c9 65 16 117 23 155l46 267h60l50 -309c5 -33 11 -70 15 -113c5 53 13 104 22 153l48 269h58l-99 -479h-61l-48 296c-5 32 -10 74 -15 125c-9 -68 -13 -107 -15 -118l-51 -303h-64z" />
    <glyph glyph-name="x" unicode="x" horiz-adv-x="275" 
d="M109 248l-100 231h63l50 -132c8 -21 17 -42 22 -66c4 23 11 44 19 65l49 133h64l-101 -230l109 -249h-62l-57 145c-7 17 -14 39 -21 66c-7 -20 -15 -42 -24 -66l-54 -145h-67z" />
    <glyph glyph-name="y" unicode="y" horiz-adv-x="306" 
d="M127 -6l-119 485h62l58 -276c10 -48 19 -95 26 -144c19 89 29 142 33 159l61 261h59l-172 -662h-58z" />
    <glyph glyph-name="z" unicode="z" horiz-adv-x="280" 
d="M203 430h-172v49h254l-204 -428h172v-51h-255z" />
    <glyph glyph-name="braceleft" unicode="{" 
d="M414 678h-18c-95 0 -112 -32 -112 -129v-118c0 -99 -15 -149 -95 -172c81 -24 95 -73 95 -172v-118c0 -97 17 -128 111 -128h19v-43h-21c-133 0 -159 47 -159 183v117c0 101 -32 140 -126 140c-7 0 -14 -1 -22 -1v44c9 -1 17 -1 24 -1c92 0 124 39 124 140v117
c0 136 26 184 159 184h21v-43z" />
    <glyph glyph-name="bar" unicode="|" 
d="M272 764v-1000h-44v1000h44z" />
    <glyph glyph-name="braceright" unicode="}" 
d="M266 537v-117c0 -101 32 -140 126 -140c7 0 14 1 22 1v-44c-8 0 -15 1 -22 1c-94 0 -126 -39 -126 -140v-117c0 -136 -26 -183 -159 -183h-21v43h19c94 0 111 31 111 128v118c0 99 15 148 96 172c-81 23 -96 73 -96 172v118c0 97 -17 129 -112 129h-18v43h21
c133 0 159 -48 159 -184z" />
    <glyph glyph-name="asciitilde" unicode="~" horiz-adv-x="833" 
d="M747 316c-67 -47 -129 -72 -189 -72c-53 0 -97 18 -141 34c-48 17 -92 35 -141 35c-59 0 -118 -28 -189 -78v45c67 47 129 72 189 72c52 0 96 -18 141 -34c47 -17 91 -35 141 -35c59 0 118 28 189 78v-45z" />
    <glyph glyph-name="exclamdown" unicode="&#xa1;" horiz-adv-x="250" 
d="M156 0h-62v541h62v-541zM125 633c-26 0 -45 19 -45 44c0 24 20 45 45 45c24 0 45 -22 45 -45c0 -25 -20 -44 -45 -44z" />
    <glyph glyph-name="cent" unicode="&#xa2;" horiz-adv-x="389" 
d="M210 32c-73 21 -111 101 -111 237c0 141 41 225 111 245v91h43v-88c14 0 32 -5 53 -14v-70c-17 20 -36 29 -58 29c-57 0 -90 -68 -90 -200c0 -115 38 -177 89 -177c21 0 41 12 59 35v-73c-14 -10 -32 -16 -53 -18v-85h-43v88z" />
    <glyph glyph-name="sterling" unicode="&#xa3;" horiz-adv-x="389" 
d="M139 95c13 33 20 64 20 93c0 23 -4 51 -12 85h-74v39h57c-34 89 -54 161 -54 225c0 117 58 185 149 185c81 0 131 -54 133 -150l-52 -26v4c0 76 -28 116 -82 116c-52 0 -85 -43 -85 -120c0 -56 23 -132 57 -234h79v-39h-70c6 -34 8 -61 8 -81c0 -35 -10 -70 -29 -107
c35 -20 60 -35 83 -35c19 0 36 18 45 53l46 -18c-18 -64 -46 -94 -90 -94c-48 0 -100 49 -135 49c-18 0 -26 -10 -37 -33l-43 21c19 47 40 68 74 68c4 0 8 -1 12 -1z" />
    <glyph glyph-name="fraction" unicode="&#x2044;" horiz-adv-x="116" 
d="M-110 -9l286 731h49l-286 -731h-49z" />
    <glyph glyph-name="yen" unicode="&#xa5;" horiz-adv-x="387" 
d="M166 311h-136v35h125l-28 80h-97v35h86l-84 252h65l102 -331l101 331h62l-83 -252h88v-35h-100l-26 -80h126v-35h-138v-311h-63v311z" />
    <glyph glyph-name="florin" unicode="&#x192;" horiz-adv-x="389" 
d="M161 373h-80l10 51h78l34 197c12 68 46 102 103 102c13 0 27 -3 43 -7l-10 -48c-8 2 -16 3 -22 3c-31 0 -46 -22 -54 -70l-31 -177h85l-8 -51h-86l-74 -453c-11 -67 -46 -102 -103 -102c-14 0 -28 2 -43 7l8 50c9 -3 17 -4 25 -4c29 0 44 23 52 69z" />
    <glyph glyph-name="section" unicode="&#xa7;" horiz-adv-x="347" 
d="M274 259c0 81 -41 128 -100 128c-58 0 -100 -46 -100 -126c0 -81 40 -129 98 -129c61 0 102 48 102 127zM304 537h-58v9c0 81 -26 123 -69 123c-37 0 -64 -32 -64 -87c0 -45 14 -75 51 -103c43 -33 82 -47 99 -63c48 -44 72 -83 72 -155c0 -88 -42 -148 -117 -171
c51 -31 77 -74 77 -139c0 -97 -52 -154 -127 -154c-74 0 -124 63 -124 171v15h57v-9c0 -81 26 -123 69 -123c38 0 64 31 64 89c0 55 -24 85 -78 119c-33 21 -71 38 -101 73c-28 33 -43 75 -43 127c0 88 42 148 117 171c-53 32 -78 78 -78 140c0 93 53 153 128 153
c74 0 125 -63 125 -171v-15z" />
    <glyph glyph-name="currency" unicode="&#xa4;" horiz-adv-x="389" 
d="M353 633c-29 19 -54 29 -81 29c-82 0 -124 -77 -134 -226h198l-10 -35h-189c0 -13 -1 -27 -1 -41v-39h162l-10 -35h-150c7 -157 42 -235 130 -235c31 0 59 11 83 30v-66c-28 -16 -60 -24 -93 -24c-124 0 -178 101 -187 295h-61l10 35h50v30c0 17 0 34 1 50h-61l10 35h53
c14 188 80 286 192 286c31 0 60 -6 88 -20v-69z" />
    <glyph glyph-name="quotesingle" unicode="'" horiz-adv-x="139" 
d="M91 700v-270h-42v270h42z" />
    <glyph glyph-name="quotedblleft" unicode="&#x201c;" horiz-adv-x="338" 
d="M176 699l-90 -214l-63 31l110 206zM319 699l-90 -214l-63 31l110 206z" />
    <glyph glyph-name="guillemotleft" unicode="&#xab;" horiz-adv-x="343" 
d="M145 452l42 -25l-101 -188l102 -188l-43 -24l-116 212zM281 452l43 -25l-101 -188l102 -188l-44 -24l-115 212z" />
    <glyph glyph-name="guilsinglleft" unicode="&#x2039;" horiz-adv-x="206" 
d="M145 452l42 -25l-101 -187l102 -189l-43 -24l-116 213z" />
    <glyph glyph-name="guilsinglright" unicode="&#x203a;" horiz-adv-x="206" 
d="M61 27l-42 25l101 187l-102 189l43 24l116 -213z" />
    <glyph glyph-name="fi" unicode="&#xfb01;" horiz-adv-x="362" 
d="M64 430h-55v49h55v151c0 92 25 135 88 135c16 0 34 -2 54 -8v-68c-15 14 -29 21 -44 21c-36 0 -39 -28 -39 -86v-145h83v-49h-83v-430h-59v430zM245 479h59v-479h-59v479zM275 669c26 0 44 -20 44 -44c0 -23 -19 -44 -44 -44c-24 0 -45 21 -45 45s20 43 45 43z" />
    <glyph glyph-name="fl" unicode="&#xfb02;" horiz-adv-x="362" 
d="M64 430h-55v49h55v151c0 92 25 135 88 135c16 0 34 -2 54 -8v-68c-15 14 -29 21 -44 21c-36 0 -39 -28 -39 -86v-145h83v-49h-83v-430h-59v430zM245 757h59v-757h-59v757z" />
    <glyph glyph-name="endash" unicode="&#x2013;" 
d="M500 226h-500v40h500v-40z" />
    <glyph glyph-name="dagger" unicode="&#x2020;" horiz-adv-x="347" 
d="M140 452h-128v52h128v209h59v-209h136v-52h-136v-649h-59v649z" />
    <glyph glyph-name="daggerdbl" unicode="&#x2021;" horiz-adv-x="347" 
d="M140 25h-128v53h128v374h-128v52h128v209h59v-209h136v-52h-136v-374h136v-53h-136v-222h-59v222z" />
    <glyph glyph-name="periodcentered" unicode="&#xb7;" horiz-adv-x="194" 
d="M97 400c26 0 44 -20 44 -44c0 -23 -19 -44 -44 -44c-24 0 -44 21 -44 45s19 43 44 43z" />
    <glyph glyph-name="paragraph" unicode="&#xb6;" 
d="M455 691h-63v-691h-34v691h-94v-691h-34v382c-116 5 -186 73 -186 170c0 100 75 170 193 170h218v-31z" />
    <glyph glyph-name="bullet" unicode="&#x2022;" horiz-adv-x="590" 
d="M150 372c0 80 65 144 145 144c79 0 144 -64 144 -144c0 -79 -65 -145 -145 -145s-144 65 -144 145z" />
    <glyph glyph-name="quotesinglbase" unicode="&#x201a;" horiz-adv-x="194" 
d="M-6 -130l90 214l63 -31l-110 -206z" />
    <glyph glyph-name="quotedblbase" unicode="&#x201e;" horiz-adv-x="338" 
d="M-6 -130l90 214l63 -31l-110 -206zM137 -130l91 214l63 -31l-110 -206z" />
    <glyph glyph-name="quotedblright" unicode="&#x201d;" horiz-adv-x="338" 
d="M23 508l90 214l63 -31l-110 -206zM166 508l90 214l63 -31l-110 -206z" />
    <glyph glyph-name="guillemotright" unicode="&#xbb;" horiz-adv-x="343" 
d="M61 27l-42 25l101 187l-102 189l43 24l116 -213zM198 27l-42 25l100 187l-101 189l43 24l115 -213z" />
    <glyph glyph-name="ellipsis" unicode="&#x2026;" horiz-adv-x="1000" 
d="M167 80c26 0 45 -19 45 -44c0 -24 -20 -45 -45 -45c-24 0 -45 22 -45 45c0 25 20 44 45 44zM500 80c26 0 45 -19 45 -44c0 -24 -20 -45 -45 -45c-24 0 -45 22 -45 45c0 25 20 44 45 44zM834 80c26 0 45 -19 45 -44c0 -24 -20 -45 -45 -45c-24 0 -45 22 -45 45
c0 25 20 44 45 44z" />
    <glyph glyph-name="perthousand" unicode="&#x2030;" horiz-adv-x="924" 
d="M154 -9l286 731h49l-286 -731h-49zM31 503c0 147 32 219 107 219s109 -72 109 -219s-34 -218 -109 -218s-107 71 -107 218zM139 676c-41 0 -58 -56 -58 -172c0 -115 17 -173 58 -173s58 57 58 173s-17 172 -58 172zM396 209c0 147 33 219 108 219s108 -72 108 -219
s-33 -218 -108 -218s-108 71 -108 218zM504 382c-41 0 -58 -56 -58 -172c0 -115 17 -173 58 -173s58 57 58 173s-17 172 -58 172zM676 209c0 147 33 219 108 219s108 -72 108 -219s-33 -218 -108 -218s-108 71 -108 218zM784 382c-41 0 -58 -56 -58 -172
c0 -115 17 -173 58 -173s59 57 59 173s-18 172 -59 172z" />
    <glyph glyph-name="questiondown" unicode="&#xbf;" horiz-adv-x="319" 
d="M232 309h-38c-72 0 -85 -38 -85 -148c0 -83 9 -117 59 -117c37 0 56 27 56 80v54h60v-46c0 -98 -32 -141 -117 -141c-88 0 -120 52 -120 165c0 142 29 204 122 208v172h63v-227zM198 633c-26 0 -45 19 -45 44c0 24 20 45 45 45c24 0 45 -22 45 -45c0 -25 -20 -44 -45 -44
z" />
    <glyph glyph-name="grave" unicode="`" 
d="M217 715l82 -170h-36l-105 170h59z" />
    <glyph glyph-name="acute" unicode="&#xb4;" 
d="M342 715l-105 -170h-36l82 170h59z" />
    <glyph glyph-name="circumflex" unicode="&#x2c6;" 
d="M279 715l79 -170h-36l-72 128l-72 -128h-36l78 170h59z" />
    <glyph glyph-name="tilde" unicode="&#x2dc;" 
d="M362 663c-14 -56 -37 -84 -72 -84c-11 0 -21 2 -31 6l-34 12c-7 2 -13 3 -21 3c-16 0 -27 -11 -35 -33h-32c12 55 39 84 73 84c11 0 20 -1 27 -4l35 -13c8 -3 15 -5 21 -5c17 0 29 11 38 34h31z" />
    <glyph glyph-name="macron" unicode="&#xaf;" 
d="M350 640v-55h-200v55h200z" />
    <glyph glyph-name="breve" unicode="&#x2d8;" 
d="M174 685c3 -50 27 -71 76 -71c48 0 72 19 75 71h32c-5 -88 -37 -128 -107 -128s-102 40 -107 128h31z" />
    <glyph glyph-name="dotaccent" unicode="&#x2d9;" 
d="M250 654c23 0 40 -18 40 -40c0 -20 -18 -40 -40 -40c-21 0 -41 20 -41 40c0 22 19 40 41 40z" />
    <glyph glyph-name="dieresis" unicode="&#xa8;" 
d="M187 654c23 0 40 -18 40 -40c0 -20 -18 -40 -40 -40c-21 0 -40 20 -40 40c0 22 18 40 40 40zM312 654c23 0 41 -18 41 -40c0 -20 -19 -40 -41 -40c-21 0 -40 20 -40 40c0 22 18 40 40 40z" />
    <glyph glyph-name="ring" unicode="&#x2da;" 
d="M141 636c0 61 48 108 109 108s109 -47 109 -108s-48 -109 -109 -109c-62 0 -109 48 -109 109zM251 701c-36 0 -65 -28 -65 -65c0 -36 29 -66 65 -66s64 30 64 66s-28 65 -64 65z" />
    <glyph glyph-name="cedilla" unicode="&#xb8;" 
d="M244 0v-54h8c55 0 86 -31 86 -82c0 -58 -34 -87 -97 -87c-27 0 -57 7 -91 19v37c38 -11 68 -17 92 -17c33 0 52 17 52 46c0 33 -18 49 -57 49c-6 0 -12 0 -18 -1v90h25z" />
    <glyph glyph-name="hungarumlaut" unicode="&#x2dd;" 
d="M291 707l-81 -171h-29l59 171h51zM391 707l-90 -171h-28l66 171h52z" />
    <glyph glyph-name="ogonek" unicode="&#x2db;" 
d="M277 0c-38 -41 -57 -80 -57 -118c0 -28 13 -39 43 -39h30v-51h-29c-55 0 -82 26 -82 76c0 43 23 87 71 132h24z" />
    <glyph glyph-name="caron" unicode="&#x2c7;" 
d="M178 707l72 -129l72 129h36l-79 -171h-59l-78 171h36z" />
    <glyph glyph-name="emdash" unicode="&#x2014;" horiz-adv-x="1000" 
d="M0 226v40h1000v-40h-1000z" />
    <glyph glyph-name="AE" unicode="&#xc6;" horiz-adv-x="491" 
d="M175 533l-59 -332h141l-58 333c-4 23 -8 58 -11 106c-3 -37 -7 -73 -13 -107zM156 713h225l12 -60h-163l51 -257h161l12 -58h-162l55 -278h161l11 -60h-222l-28 144h-163l-25 -144h-67z" />
    <glyph glyph-name="ordfeminine" unicode="&#xaa;" horiz-adv-x="264" 
d="M179 378v31c-12 -24 -36 -37 -64 -37c-65 0 -88 59 -88 182c0 110 26 163 88 163c28 0 49 -12 63 -35v31h43v-335h-42zM72 544c0 -95 11 -138 55 -138c42 0 53 45 53 138s-11 138 -53 138c-44 0 -55 -44 -55 -138z" />
    <glyph glyph-name="Lslash" unicode="&#x141;" horiz-adv-x="296" 
d="M81 319l-72 -49v61l72 48v334h65v-304l83 55v-62l-83 -55v-288h154v-59h-219v319z" />
    <glyph glyph-name="Oslash" unicode="&#xd8;" horiz-adv-x="428" 
d="M73 90c-27 77 -36 164 -36 266c0 246 54 366 177 366c51 0 90 -22 120 -66l32 68l33 -12l-43 -92c19 -44 35 -134 35 -264c0 -246 -54 -365 -177 -365c-49 0 -90 21 -120 63l-36 -70l-30 15zM300 583c-19 53 -47 79 -86 79c-75 0 -110 -97 -110 -294
c0 -56 4 -123 12 -199zM132 122c16 -46 46 -71 82 -71c79 0 110 101 110 306c0 42 -3 99 -10 171z" />
    <glyph glyph-name="OE" unicode="&#x152;" horiz-adv-x="597" 
d="M214 662c-78 0 -110 -100 -110 -305s32 -306 110 -306c79 0 110 100 110 306c0 205 -31 305 -110 305zM324 69c-22 -50 -62 -78 -110 -78c-123 0 -177 119 -177 365s54 366 177 366c48 0 87 -26 110 -75v66h225v-60h-160v-257h157v-58h-157v-278h164v-60h-229v69z" />
    <glyph glyph-name="ordmasculine" unicode="&#xba;" horiz-adv-x="254" 
d="M24 546c0 116 35 174 104 174c66 0 102 -59 102 -174c0 -116 -36 -174 -102 -174c-69 0 -104 58 -104 174zM127 685c-41 0 -57 -45 -57 -139s16 -139 57 -139c39 0 57 45 57 138s-18 140 -57 140z" />
    <glyph glyph-name="ae" unicode="&#xe6;" horiz-adv-x="529" 
d="M267 65c-22 -46 -62 -71 -112 -71c-78 0 -124 57 -124 161c0 85 51 139 121 139c33 0 63 -10 88 -32v81c0 65 -22 92 -75 92c-30 0 -62 -12 -94 -36v59c39 20 73 30 104 30c51 0 84 -24 99 -72c21 47 59 72 103 72c85 0 129 -82 129 -246v-17h-209v-16
c0 -109 30 -167 77 -167c38 0 67 42 69 117h57c-5 -108 -55 -168 -126 -168c-49 0 -86 25 -107 74zM450 274c-1 105 -29 160 -72 160c-46 0 -77 -54 -81 -160h153zM165 248c-49 0 -82 -39 -82 -98c0 -71 29 -108 83 -108c49 0 80 39 80 106c0 63 -30 100 -81 100z" />
    <glyph glyph-name="dotlessi" unicode="&#x131;" horiz-adv-x="174" 
d="M56 479h60v-479h-60v479z" />
    <glyph glyph-name="lslash" unicode="&#x142;" horiz-adv-x="192" 
d="M66 348l-57 -38v51l57 38v358h59v-334l56 38v-51l-56 -38v-372h-59v348z" />
    <glyph glyph-name="oslash" unicode="&#xf8;" horiz-adv-x="338" 
d="M62 58c-19 42 -30 103 -30 182c0 166 47 249 138 249c33 0 61 -13 84 -39l25 49l28 -13l-32 -65c20 -39 31 -100 31 -181c0 -165 -47 -249 -136 -249c-36 0 -64 12 -87 39l-28 -53l-27 16zM222 400c-11 24 -31 38 -53 38c-55 0 -76 -64 -76 -198c0 -42 1 -80 6 -113z
M114 79c13 -25 32 -38 55 -38c52 0 76 65 76 198c0 41 -2 79 -8 114z" />
    <glyph glyph-name="oe" unicode="&#x153;" horiz-adv-x="535" 
d="M169 438c-55 0 -76 -64 -76 -198s21 -199 76 -199c52 0 76 65 76 198s-24 199 -76 199zM456 274c-1 105 -29 160 -72 160c-46 0 -77 -54 -81 -160h153zM275 62c-20 -45 -59 -71 -105 -71c-91 0 -138 83 -138 249s47 249 138 249c48 0 84 -25 107 -76c23 47 60 75 105 75
c85 0 130 -83 130 -247v-16h-209v-16c0 -109 30 -167 77 -167c38 0 67 42 69 117h57c-5 -108 -56 -168 -127 -168c-48 0 -85 25 -104 71z" />
    <glyph glyph-name="germandbls" unicode="&#xdf;" horiz-adv-x="366" 
d="M57 559c0 143 30 207 124 207c85 0 125 -60 125 -184c0 -83 -23 -133 -70 -154c61 -23 89 -91 89 -207c0 -153 -41 -226 -129 -226c-9 0 -17 0 -27 2v53c10 -2 19 -2 28 -2c48 0 66 59 66 183c0 109 -29 162 -91 165v59c57 3 73 46 73 140c0 79 -23 118 -68 118
c-42 0 -61 -46 -61 -139v-574h-59v559z" />
    <glyph glyph-name="Aacute" unicode="&#xc1;" horiz-adv-x="366" 
d="M156 713h62l145 -713h-66l-28 144h-163l-25 -144h-67zM175 533l-59 -332h141l-58 333c-4 23 -8 58 -11 106c-3 -37 -7 -73 -13 -107zM275 949l-105 -170h-36l82 170h59z" />
    <glyph glyph-name="Acircumflex" unicode="&#xc2;" horiz-adv-x="366" 
d="M156 713h62l145 -713h-66l-28 144h-163l-25 -144h-67zM175 533l-59 -332h141l-58 333c-4 23 -8 58 -11 106c-3 -37 -7 -73 -13 -107zM212 949l79 -170h-36l-72 128l-72 -128h-36l78 170h59z" />
    <glyph glyph-name="Adieresis" unicode="&#xc4;" horiz-adv-x="366" 
d="M156 713h62l145 -713h-66l-28 144h-163l-25 -144h-67zM175 533l-59 -332h141l-58 333c-4 23 -8 58 -11 106c-3 -37 -7 -73 -13 -107zM120 888c23 0 40 -18 40 -40c0 -20 -18 -40 -40 -40c-21 0 -40 20 -40 40c0 22 18 40 40 40zM245 888c23 0 41 -18 41 -40
c0 -20 -19 -40 -41 -40c-21 0 -40 20 -40 40c0 22 18 40 40 40z" />
    <glyph glyph-name="Agrave" unicode="&#xc0;" horiz-adv-x="366" 
d="M156 713h62l145 -713h-66l-28 144h-163l-25 -144h-67zM175 533l-59 -332h141l-58 333c-4 23 -8 58 -11 106c-3 -37 -7 -73 -13 -107zM150 949l82 -170h-36l-105 170h59z" />
    <glyph glyph-name="Aring" unicode="&#xc5;" horiz-adv-x="366" 
d="M156 713h62l145 -713h-66l-28 144h-163l-25 -144h-67zM175 533l-59 -332h141l-58 333c-4 23 -8 58 -11 106c-3 -37 -7 -73 -13 -107zM80 854c0 61 48 109 109 109s108 -48 108 -109s-47 -108 -108 -108c-62 0 -109 47 -109 108zM189 919c-36 0 -65 -28 -65 -65
c0 -36 29 -65 65 -65s65 29 65 65s-29 65 -65 65z" />
    <glyph glyph-name="Atilde" unicode="&#xc3;" horiz-adv-x="366" 
d="M156 713h62l145 -713h-66l-28 144h-163l-25 -144h-67zM175 533l-59 -332h141l-58 333c-4 23 -8 58 -11 106c-3 -37 -7 -73 -13 -107zM295 897c-14 -56 -37 -84 -72 -84c-11 0 -21 2 -31 6l-34 12c-7 2 -13 3 -21 3c-16 0 -27 -11 -35 -33h-32c12 55 39 84 73 84
c11 0 20 -1 27 -4l35 -13c8 -3 15 -5 21 -5c17 0 29 11 38 34h31z" />
    <glyph glyph-name="Ccedilla" unicode="&#xc7;" horiz-adv-x="329" 
d="M320 19c-28 -16 -60 -24 -93 -24c-130 0 -190 117 -190 356c0 243 69 366 197 366c31 0 60 -6 88 -20v-70c-29 19 -54 29 -81 29c-95 0 -136 -97 -136 -296c0 -206 31 -303 132 -303c19 0 37 4 54 12c9 4 19 10 29 18v-68zM203 0v-54h8c55 0 86 -31 86 -82
c0 -58 -34 -87 -97 -87c-27 0 -57 7 -91 19v37c38 -11 68 -17 92 -17c33 0 52 17 52 46c0 33 -18 49 -57 49c-6 0 -12 0 -18 -1v90h25z" />
    <glyph glyph-name="Eacute" unicode="&#xc9;" horiz-adv-x="345" 
d="M72 713h224v-60h-159v-257h157v-58h-157v-278h164v-60h-229v713zM274 949l-105 -170h-36l82 170h59z" />
    <glyph glyph-name="Ecircumflex" unicode="&#xca;" horiz-adv-x="345" 
d="M72 713h224v-60h-159v-257h157v-58h-157v-278h164v-60h-229v713zM211 949l79 -170h-36l-72 128l-72 -128h-36l78 170h59z" />
    <glyph glyph-name="Edieresis" unicode="&#xcb;" horiz-adv-x="345" 
d="M72 713h224v-60h-159v-257h157v-58h-157v-278h164v-60h-229v713zM119 888c23 0 40 -18 40 -40c0 -20 -18 -40 -40 -40c-21 0 -40 20 -40 40c0 22 18 40 40 40zM244 888c23 0 41 -18 41 -40c0 -20 -19 -40 -41 -40c-21 0 -40 20 -40 40c0 22 18 40 40 40z" />
    <glyph glyph-name="Egrave" unicode="&#xc8;" horiz-adv-x="345" 
d="M72 713h224v-60h-159v-257h157v-58h-157v-278h164v-60h-229v713zM149 949l82 -170h-36l-105 170h59z" />
    <glyph glyph-name="Eth" unicode="&#xd0;" horiz-adv-x="417" 
d="M81 372h-72v50h72v291h82c175 0 216 -105 216 -359c0 -250 -51 -354 -219 -354h-79v372zM146 372v-312h13c126 0 154 84 154 285c0 218 -22 309 -150 309h-17v-232h83v-50h-83z" />
    <glyph glyph-name="Euro" unicode="&#x20ac;" horiz-adv-x="389" 
d="M353 633c-29 19 -54 29 -81 29c-82 0 -124 -77 -134 -226h198l-10 -35h-189c0 -13 -1 -27 -1 -41v-39h162l-10 -35h-150c7 -157 42 -235 130 -235c31 0 59 11 83 30v-66c-28 -16 -60 -24 -93 -24c-124 0 -178 101 -187 295h-61l10 35h50v30c0 17 0 34 1 50h-61l10 35h53
c14 188 80 286 192 286c31 0 60 -6 88 -20v-69z" />
    <glyph glyph-name="Iacute" unicode="&#xcd;" horiz-adv-x="208" 
d="M72 0v713h65v-713h-65zM196 949l-105 -170h-36l82 170h59z" />
    <glyph glyph-name="Icircumflex" unicode="&#xce;" horiz-adv-x="208" 
d="M72 0v713h65v-713h-65zM133 949l79 -170h-36l-72 128l-72 -128h-36l78 170h59z" />
    <glyph glyph-name="Idieresis" unicode="&#xcf;" horiz-adv-x="208" 
d="M72 0v713h65v-713h-65zM41 888c23 0 40 -18 40 -40c0 -20 -18 -40 -40 -40c-21 0 -40 20 -40 40c0 22 18 40 40 40zM166 888c23 0 41 -18 41 -40c0 -20 -19 -40 -41 -40c-21 0 -40 20 -40 40c0 22 18 40 40 40z" />
    <glyph glyph-name="Igrave" unicode="&#xcc;" horiz-adv-x="208" 
d="M72 0v713h65v-713h-65zM71 949l82 -170h-36l-105 170h59z" />
    <glyph glyph-name="Ntilde" unicode="&#xd1;" horiz-adv-x="440" 
d="M72 713h56l161 -488c4 -12 17 -61 39 -150c-10 85 -15 174 -15 269v369h56v-713h-56l-157 480c-17 52 -31 105 -44 159c11 -104 16 -193 16 -267v-372h-56v713zM332 897c-14 -56 -37 -84 -72 -84c-11 0 -21 2 -31 6l-34 12c-7 2 -13 3 -21 3c-16 0 -27 -11 -35 -33h-32
c12 55 39 84 73 84c11 0 20 -1 27 -4l35 -13c8 -3 15 -5 21 -5c17 0 29 11 38 34h31z" />
    <glyph glyph-name="Oacute" unicode="&#xd3;" horiz-adv-x="428" 
d="M37 356c0 246 54 366 177 366s177 -120 177 -366s-54 -365 -177 -365s-177 119 -177 365zM214 662c-78 0 -110 -100 -110 -305s32 -306 110 -306c79 0 110 100 110 306c0 205 -31 305 -110 305zM306 949l-105 -170h-36l82 170h59z" />
    <glyph glyph-name="Ocircumflex" unicode="&#xd4;" horiz-adv-x="428" 
d="M37 356c0 246 54 366 177 366s177 -120 177 -366s-54 -365 -177 -365s-177 119 -177 365zM214 662c-78 0 -110 -100 -110 -305s32 -306 110 -306c79 0 110 100 110 306c0 205 -31 305 -110 305zM243 949l79 -170h-36l-72 128l-72 -128h-36l78 170h59z" />
    <glyph glyph-name="Odieresis" unicode="&#xd6;" horiz-adv-x="428" 
d="M37 356c0 246 54 366 177 366s177 -120 177 -366s-54 -365 -177 -365s-177 119 -177 365zM214 662c-78 0 -110 -100 -110 -305s32 -306 110 -306c79 0 110 100 110 306c0 205 -31 305 -110 305zM151 888c23 0 40 -18 40 -40c0 -20 -18 -40 -40 -40c-21 0 -40 20 -40 40
c0 22 18 40 40 40zM276 888c23 0 41 -18 41 -40c0 -20 -19 -40 -41 -40c-21 0 -40 20 -40 40c0 22 18 40 40 40z" />
    <glyph glyph-name="Ograve" unicode="&#xd2;" horiz-adv-x="428" 
d="M37 356c0 246 54 366 177 366s177 -120 177 -366s-54 -365 -177 -365s-177 119 -177 365zM214 662c-78 0 -110 -100 -110 -305s32 -306 110 -306c79 0 110 100 110 306c0 205 -31 305 -110 305zM181 949l82 -170h-36l-105 170h59z" />
    <glyph glyph-name="Otilde" unicode="&#xd5;" horiz-adv-x="428" 
d="M37 356c0 246 54 366 177 366s177 -120 177 -366s-54 -365 -177 -365s-177 119 -177 365zM214 662c-78 0 -110 -100 -110 -305s32 -306 110 -306c79 0 110 100 110 306c0 205 -31 305 -110 305zM326 897c-14 -56 -37 -84 -72 -84c-11 0 -21 2 -31 6l-34 12
c-7 2 -13 3 -21 3c-16 0 -27 -11 -35 -33h-32c12 55 39 84 73 84c11 0 20 -1 27 -4l35 -13c8 -3 15 -5 21 -5c17 0 29 11 38 34h31z" />
    <glyph glyph-name="Scaron" unicode="&#x160;" horiz-adv-x="366" 
d="M44 110c35 -39 73 -58 113 -58c66 0 114 52 114 129c0 33 -9 60 -27 83c-29 38 -70 61 -106 90c-68 55 -102 108 -102 182c0 108 72 186 166 186c38 0 75 -13 110 -39v-84c-29 41 -66 62 -107 62c-61 0 -104 -47 -104 -119c0 -80 43 -113 112 -164
c76 -56 123 -99 123 -193c0 -116 -75 -194 -173 -194c-43 0 -82 11 -119 34v85zM111 941l72 -129l72 129h36l-79 -171h-59l-78 171h36z" />
    <glyph glyph-name="Thorn" unicode="&#xde;" horiz-adv-x="377" 
d="M72 713h65v-156h26c124 0 177 -58 177 -192c0 -123 -52 -179 -168 -179h-35v-186h-65v713zM137 499v-255h36c74 0 102 39 102 130c0 86 -33 125 -107 125h-31z" />
    <glyph glyph-name="Uacute" unicode="&#xda;" horiz-adv-x="446" 
d="M71 713h65v-510c0 -106 15 -154 86 -154s86 48 86 154v510h65v-510c0 -146 -33 -212 -151 -212s-151 66 -151 212v510zM315 949l-105 -170h-36l82 170h59z" />
    <glyph glyph-name="Ucircumflex" unicode="&#xdb;" horiz-adv-x="446" 
d="M71 713h65v-510c0 -106 15 -154 86 -154s86 48 86 154v510h65v-510c0 -146 -33 -212 -151 -212s-151 66 -151 212v510zM252 949l79 -170h-36l-72 128l-72 -128h-36l78 170h59z" />
    <glyph glyph-name="Udieresis" unicode="&#xdc;" horiz-adv-x="446" 
d="M71 713h65v-510c0 -106 15 -154 86 -154s86 48 86 154v510h65v-510c0 -146 -33 -212 -151 -212s-151 66 -151 212v510zM160 888c23 0 40 -18 40 -40c0 -20 -18 -40 -40 -40c-21 0 -40 20 -40 40c0 22 18 40 40 40zM285 888c23 0 41 -18 41 -40c0 -20 -19 -40 -41 -40
c-21 0 -40 20 -40 40c0 22 18 40 40 40z" />
    <glyph glyph-name="Ugrave" unicode="&#xd9;" horiz-adv-x="446" 
d="M71 713h65v-510c0 -106 15 -154 86 -154s86 48 86 154v510h65v-510c0 -146 -33 -212 -151 -212s-151 66 -151 212v510zM190 949l82 -170h-36l-105 170h59z" />
    <glyph glyph-name="Yacute" unicode="&#xdd;" horiz-adv-x="329" 
d="M132 311l-134 402h68l100 -328l98 328h66l-133 -404v-309h-65v311zM257 949l-105 -170h-36l82 170h59z" />
    <glyph glyph-name="Ydieresis" unicode="&#x178;" horiz-adv-x="329" 
d="M132 311l-134 402h68l100 -328l98 328h66l-133 -404v-309h-65v311zM102 888c23 0 40 -18 40 -40c0 -20 -18 -40 -40 -40c-21 0 -40 20 -40 40c0 22 18 40 40 40zM227 888c23 0 41 -18 41 -40c0 -20 -19 -40 -41 -40c-21 0 -40 20 -40 40c0 22 18 40 40 40z" />
    <glyph glyph-name="Zcaron" unicode="&#x17d;" horiz-adv-x="306" 
d="M216 654h-179v59h261l-205 -653h181v-60h-264zM81 941l72 -129l72 129h36l-79 -171h-59l-78 171h36z" />
    <glyph glyph-name="aacute" unicode="&#xe1;" horiz-adv-x="352" 
d="M238 0v44c-16 -34 -47 -53 -85 -53c-87 0 -117 85 -117 260c0 157 34 234 117 234c37 0 65 -18 84 -51v45h58v-479h-57zM96 237c0 -135 14 -197 73 -197c56 0 71 64 71 197s-15 198 -71 198c-59 0 -73 -64 -73 -198zM268 715l-105 -170h-36l82 170h59z" />
    <glyph glyph-name="acircumflex" unicode="&#xe2;" horiz-adv-x="352" 
d="M238 0v44c-16 -34 -47 -53 -85 -53c-87 0 -117 85 -117 260c0 157 34 234 117 234c37 0 65 -18 84 -51v45h58v-479h-57zM96 237c0 -135 14 -197 73 -197c56 0 71 64 71 197s-15 198 -71 198c-59 0 -73 -64 -73 -198zM205 715l79 -170h-36l-72 128l-72 -128h-36l78 170h59
z" />
    <glyph glyph-name="adieresis" unicode="&#xe4;" horiz-adv-x="352" 
d="M238 0v44c-16 -34 -47 -53 -85 -53c-87 0 -117 85 -117 260c0 157 34 234 117 234c37 0 65 -18 84 -51v45h58v-479h-57zM96 237c0 -135 14 -197 73 -197c56 0 71 64 71 197s-15 198 -71 198c-59 0 -73 -64 -73 -198zM113 654c23 0 40 -18 40 -40c0 -20 -18 -40 -40 -40
c-21 0 -40 20 -40 40c0 22 18 40 40 40zM238 654c23 0 41 -18 41 -40c0 -20 -19 -40 -41 -40c-21 0 -40 20 -40 40c0 22 18 40 40 40z" />
    <glyph glyph-name="agrave" unicode="&#xe0;" horiz-adv-x="352" 
d="M238 0v44c-16 -34 -47 -53 -85 -53c-87 0 -117 85 -117 260c0 157 34 234 117 234c37 0 65 -18 84 -51v45h58v-479h-57zM96 237c0 -135 14 -197 73 -197c56 0 71 64 71 197s-15 198 -71 198c-59 0 -73 -64 -73 -198zM143 715l82 -170h-36l-105 170h59z" />
    <glyph glyph-name="aring" unicode="&#xe5;" horiz-adv-x="352" 
d="M238 0v44c-16 -34 -47 -53 -85 -53c-87 0 -117 85 -117 260c0 157 34 234 117 234c37 0 65 -18 84 -51v45h58v-479h-57zM96 237c0 -135 14 -197 73 -197c56 0 71 64 71 197s-15 198 -71 198c-59 0 -73 -64 -73 -198zM66 636c0 61 48 108 109 108s108 -47 108 -108
s-47 -109 -108 -109c-62 0 -109 48 -109 109zM175 701c-36 0 -65 -28 -65 -65c0 -36 29 -66 65 -66s64 30 64 66s-28 65 -64 65z" />
    <glyph glyph-name="atilde" unicode="&#xe3;" horiz-adv-x="352" 
d="M238 0v44c-16 -34 -47 -53 -85 -53c-87 0 -117 85 -117 260c0 157 34 234 117 234c37 0 65 -18 84 -51v45h58v-479h-57zM96 237c0 -135 14 -197 73 -197c56 0 71 64 71 197s-15 198 -71 198c-59 0 -73 -64 -73 -198zM288 663c-14 -56 -37 -84 -72 -84c-11 0 -21 2 -31 6
l-34 12c-7 2 -13 3 -21 3c-16 0 -27 -11 -35 -33h-32c12 55 39 84 73 84c11 0 20 -1 27 -4l35 -13c8 -3 15 -5 21 -5c17 0 29 11 38 34h31z" />
    <glyph glyph-name="brokenbar" unicode="&#xa6;" 
d="M272 699v-370h-44v370h44zM272 199v-370h-44v370h44z" />
    <glyph glyph-name="ccedilla" unicode="&#xe7;" horiz-adv-x="264" 
d="M248 467v-69c-18 22 -36 32 -59 32c-63 0 -88 -66 -88 -202c0 -118 29 -178 86 -178c25 0 45 12 60 36v-70c-22 -15 -44 -22 -70 -22c-81 0 -136 83 -136 237c0 169 50 254 148 254c22 0 43 -7 59 -18zM154 0v-54h8c55 0 86 -31 86 -82c0 -58 -34 -87 -97 -87
c-27 0 -57 7 -91 19v37c38 -11 68 -17 92 -17c33 0 52 17 52 46c0 33 -18 49 -57 49c-6 0 -12 0 -18 -1v90h25z" />
    <glyph glyph-name="copyright" unicode="&#xa9;" horiz-adv-x="833" 
d="M416 709c97 0 186 -37 254 -105c67 -67 103 -156 103 -252c0 -98 -36 -184 -103 -250c-70 -69 -160 -107 -254 -107c-95 0 -183 38 -251 106s-105 156 -105 251c0 94 37 184 106 254c66 67 153 103 250 103zM738 352c0 87 -33 167 -93 227c-62 62 -142 95 -229 95
s-166 -33 -225 -93c-62 -63 -96 -144 -96 -229s34 -165 95 -226s141 -95 226 -95c84 0 166 34 229 96c60 59 93 137 93 225zM528 448c-13 53 -54 84 -111 84c-81 0 -130 -65 -130 -181c0 -112 51 -178 130 -178c59 0 105 36 117 94h50c-7 -80 -77 -136 -170 -136
c-110 0 -184 83 -184 223c0 136 78 220 190 220c86 0 151 -52 159 -126h-51z" />
    <glyph glyph-name="degree" unicode="&#xb0;" horiz-adv-x="329" 
d="M165 708c73 0 133 -60 133 -134c0 -73 -59 -133 -134 -133s-133 59 -133 133c0 75 60 134 134 134zM269 574c0 57 -47 104 -104 104c-58 0 -104 -46 -104 -104s47 -104 104 -104c58 0 104 47 104 104z" />
    <glyph glyph-name="divide" unicode="&#xf7;" horiz-adv-x="833" 
d="M417 515c27 0 48 -21 48 -48c0 -26 -21 -49 -48 -49s-48 22 -48 49s22 48 48 48zM709 318v-39h-585v39h585zM417 179c27 0 48 -23 48 -49c0 -27 -21 -48 -48 -48s-48 20 -48 48c0 26 22 49 48 49z" />
    <glyph glyph-name="eacute" unicode="&#xe9;" horiz-adv-x="322" 
d="M299 225h-209v-16c0 -109 30 -167 77 -167c38 0 67 42 69 117h57c-5 -108 -56 -168 -127 -168c-89 0 -134 82 -134 245c0 164 53 252 137 252c85 0 130 -83 130 -247v-16zM243 274c-1 105 -29 160 -72 160c-46 0 -77 -54 -81 -160h153zM259 715l-105 -170h-36l82 170h59z
" />
    <glyph glyph-name="ecircumflex" unicode="&#xea;" horiz-adv-x="322" 
d="M299 225h-209v-16c0 -109 30 -167 77 -167c38 0 67 42 69 117h57c-5 -108 -56 -168 -127 -168c-89 0 -134 82 -134 245c0 164 53 252 137 252c85 0 130 -83 130 -247v-16zM243 274c-1 105 -29 160 -72 160c-46 0 -77 -54 -81 -160h153zM196 715l79 -170h-36l-72 128
l-72 -128h-36l78 170h59z" />
    <glyph glyph-name="edieresis" unicode="&#xeb;" horiz-adv-x="322" 
d="M299 225h-209v-16c0 -109 30 -167 77 -167c38 0 67 42 69 117h57c-5 -108 -56 -168 -127 -168c-89 0 -134 82 -134 245c0 164 53 252 137 252c85 0 130 -83 130 -247v-16zM243 274c-1 105 -29 160 -72 160c-46 0 -77 -54 -81 -160h153zM104 654c23 0 40 -18 40 -40
c0 -20 -18 -40 -40 -40c-21 0 -40 20 -40 40c0 22 18 40 40 40zM229 654c23 0 41 -18 41 -40c0 -20 -19 -40 -41 -40c-21 0 -40 20 -40 40c0 22 18 40 40 40z" />
    <glyph glyph-name="egrave" unicode="&#xe8;" horiz-adv-x="322" 
d="M299 225h-209v-16c0 -109 30 -167 77 -167c38 0 67 42 69 117h57c-5 -108 -56 -168 -127 -168c-89 0 -134 82 -134 245c0 164 53 252 137 252c85 0 130 -83 130 -247v-16zM243 274c-1 105 -29 160 -72 160c-46 0 -77 -54 -81 -160h153zM134 715l82 -170h-36l-105 170h59z
" />
    <glyph glyph-name="eth" unicode="&#xf0;" horiz-adv-x="338" 
d="M169 438c-55 0 -76 -64 -76 -198s21 -199 76 -199c52 0 76 65 76 198s-24 199 -76 199zM210 475c-16 48 -38 96 -65 145l-96 -46l-17 38l93 45c-16 31 -35 64 -59 100h62c15 -27 30 -53 44 -77l77 36l18 -36l-75 -37c76 -144 114 -278 114 -403
c0 -165 -47 -249 -136 -249c-91 0 -138 83 -138 249s47 249 138 249c16 0 29 -4 40 -14z" />
    <glyph glyph-name="iacute" unicode="&#xed;" horiz-adv-x="174" 
d="M56 479h60v-479h-60v479zM179 715l-105 -170h-36l82 170h59z" />
    <glyph glyph-name="icircumflex" unicode="&#xee;" horiz-adv-x="174" 
d="M56 479h60v-479h-60v479zM116 715l79 -170h-36l-72 128l-72 -128h-36l78 170h59z" />
    <glyph glyph-name="idieresis" unicode="&#xef;" horiz-adv-x="174" 
d="M56 479h60v-479h-60v479zM24 654c23 0 40 -18 40 -40c0 -20 -18 -40 -40 -40c-21 0 -40 20 -40 40c0 22 18 40 40 40zM149 654c23 0 41 -18 41 -40c0 -20 -19 -40 -41 -40c-21 0 -40 20 -40 40c0 22 18 40 40 40z" />
    <glyph glyph-name="igrave" unicode="&#xec;" horiz-adv-x="174" 
d="M56 479h60v-479h-60v479zM54 715l82 -170h-36l-105 170h59z" />
    <glyph glyph-name="logicalnot" unicode="&#xac;" horiz-adv-x="833" 
d="M709 418v-245h-39v206h-546v39h585z" />
    <glyph glyph-name="minus" unicode="&#x2212;" horiz-adv-x="833" 
d="M709 318v-39h-585v39h585z" />
    <glyph glyph-name="mu" unicode="&#xb5;" horiz-adv-x="534" 
d="M159 519l-60 -288c-5 -25 -8 -47 -8 -69c0 -82 40 -126 114 -126c80 0 144 69 174 206l61 277h59l-81 -384c-7 -33 -12 -55 -12 -66c0 -20 11 -31 33 -31c2 0 8 0 19 1l-9 -47c-14 -3 -27 -6 -37 -6c-44 0 -65 20 -65 62c0 6 1 14 2 22c-28 -54 -82 -84 -152 -84
c-64 0 -113 31 -134 84l-58 -277h-59l154 726h59z" />
    <glyph glyph-name="multiply" unicode="&#xd7;" horiz-adv-x="833" 
d="M417 326l238 238l28 -28l-238 -238l238 -238l-28 -28l-238 238l-238 -238l-28 28l238 238l-238 238l28 28z" />
    <glyph glyph-name="ntilde" unicode="&#xf1;" horiz-adv-x="356" 
d="M57 479h59v-44c22 34 54 50 92 50c71 0 97 -50 97 -153v-332h-59v341c0 69 -12 98 -59 98c-46 0 -71 -41 -71 -120v-319h-59v479zM295 663c-14 -56 -37 -84 -72 -84c-11 0 -21 2 -31 6l-34 12c-7 2 -13 3 -21 3c-16 0 -27 -11 -35 -33h-32c12 55 39 84 73 84
c11 0 20 -1 27 -4l35 -13c8 -3 15 -5 21 -5c17 0 29 11 38 34h31z" />
    <glyph glyph-name="oacute" unicode="&#xf3;" horiz-adv-x="338" 
d="M32 240c0 166 47 249 138 249c88 0 136 -84 136 -249s-47 -249 -136 -249c-91 0 -138 83 -138 249zM169 438c-55 0 -76 -64 -76 -198s21 -199 76 -199c52 0 76 65 76 198s-24 199 -76 199zM261 715l-105 -170h-36l82 170h59z" />
    <glyph glyph-name="ocircumflex" unicode="&#xf4;" horiz-adv-x="338" 
d="M32 240c0 166 47 249 138 249c88 0 136 -84 136 -249s-47 -249 -136 -249c-91 0 -138 83 -138 249zM169 438c-55 0 -76 -64 -76 -198s21 -199 76 -199c52 0 76 65 76 198s-24 199 -76 199zM198 715l79 -170h-36l-72 128l-72 -128h-36l78 170h59z" />
    <glyph glyph-name="odieresis" unicode="&#xf6;" horiz-adv-x="338" 
d="M32 240c0 166 47 249 138 249c88 0 136 -84 136 -249s-47 -249 -136 -249c-91 0 -138 83 -138 249zM169 438c-55 0 -76 -64 -76 -198s21 -199 76 -199c52 0 76 65 76 198s-24 199 -76 199zM106 654c23 0 40 -18 40 -40c0 -20 -18 -40 -40 -40c-21 0 -40 20 -40 40
c0 22 18 40 40 40zM231 654c23 0 41 -18 41 -40c0 -20 -19 -40 -41 -40c-21 0 -40 20 -40 40c0 22 18 40 40 40z" />
    <glyph glyph-name="ograve" unicode="&#xf2;" horiz-adv-x="338" 
d="M32 240c0 166 47 249 138 249c88 0 136 -84 136 -249s-47 -249 -136 -249c-91 0 -138 83 -138 249zM169 438c-55 0 -76 -64 -76 -198s21 -199 76 -199c52 0 76 65 76 198s-24 199 -76 199zM136 715l82 -170h-36l-105 170h59z" />
    <glyph glyph-name="onehalf" unicode="&#xbd;" horiz-adv-x="606" 
d="M106 679h-58l9 33h89v-399h-40v366zM135 -9l286 731h49l-286 -731h-49zM427 292h-39v5c0 70 33 107 91 107c51 0 91 -36 91 -91c0 -58 -49 -147 -128 -279h124v-34h-187c94 157 151 256 151 312c0 36 -21 59 -51 59c-34 0 -52 -24 -52 -72v-7z" />
    <glyph glyph-name="onequarter" unicode="&#xbc;" horiz-adv-x="606" 
d="M106 679h-58l9 33h89v-399h-40v366zM135 -9l286 731h49l-286 -731h-49zM511 109h-125v33l121 257h42v-259h32v-31h-32v-109h-38v109zM422 140h89v66c0 45 2 98 8 159c-9 -25 -20 -50 -32 -78z" />
    <glyph glyph-name="onesuperior" unicode="&#xb9;" horiz-adv-x="257" 
d="M112 677h-61l10 36h93v-428h-42v392z" />
    <glyph glyph-name="otilde" unicode="&#xf5;" horiz-adv-x="338" 
d="M32 240c0 166 47 249 138 249c88 0 136 -84 136 -249s-47 -249 -136 -249c-91 0 -138 83 -138 249zM169 438c-55 0 -76 -64 -76 -198s21 -199 76 -199c52 0 76 65 76 198s-24 199 -76 199zM281 663c-14 -56 -37 -84 -72 -84c-11 0 -21 2 -31 6l-34 12c-7 2 -13 3 -21 3
c-16 0 -27 -11 -35 -33h-32c12 55 39 84 73 84c11 0 20 -1 27 -4l35 -13c8 -3 15 -5 21 -5c17 0 29 11 38 34h31z" />
    <glyph glyph-name="plusminus" unicode="&#xb1;" horiz-adv-x="833" 
d="M436 567v-173h273v-39h-273v-172h-39v172h-273v39h273v173h39zM709 69v-39h-585v39h585z" />
    <glyph glyph-name="registered" unicode="&#xae;" horiz-adv-x="833" 
d="M416 709c97 0 186 -37 254 -105c67 -67 103 -156 103 -252c0 -98 -36 -184 -103 -250c-70 -69 -160 -107 -254 -107c-95 0 -183 38 -251 106s-105 156 -105 251c0 94 37 184 106 254c66 67 153 103 250 103zM738 352c0 87 -33 167 -93 227c-62 62 -142 95 -229 95
s-166 -33 -225 -93c-62 -63 -96 -144 -96 -229s34 -165 95 -226s141 -95 226 -95c84 0 166 34 229 96c60 59 93 137 93 225zM427 564c114 0 170 -34 170 -114c0 -57 -38 -100 -99 -107l93 -192h-64l-89 184h-104v-184h-56v413h149zM416 526h-82v-153h82c87 0 124 16 124 79
c0 52 -41 74 -124 74z" />
    <glyph glyph-name="scaron" unicode="&#x161;" horiz-adv-x="264" 
d="M32 94c30 -34 61 -50 91 -50c44 0 75 31 75 75c0 43 -32 68 -80 109c-56 48 -92 82 -92 142c0 68 49 117 118 117c29 0 57 -8 85 -25v-61c-25 24 -53 36 -79 36c-39 0 -68 -28 -68 -65c0 -40 29 -63 72 -99c62 -52 101 -88 101 -153c0 -76 -54 -131 -128 -131
c-34 0 -68 12 -95 35v70zM60 707l72 -129l72 129h36l-79 -171h-59l-78 171h36z" />
    <glyph glyph-name="thorn" unicode="&#xfe;" horiz-adv-x="352" 
d="M59 757h59v-318c22 31 49 46 83 46c87 0 117 -81 117 -246c0 -167 -35 -248 -118 -248c-32 0 -60 14 -82 42v-225h-59v949zM185 40c59 0 72 63 72 197s-13 198 -72 198c-56 0 -71 -65 -71 -198s15 -197 71 -197z" />
    <glyph glyph-name="threequarters" unicode="&#xbe;" horiz-adv-x="606" 
d="M69 421v-9c0 -47 15 -70 49 -70c35 0 55 29 55 85c0 63 -19 88 -79 88c-4 0 -9 -1 -14 -1v34c6 -1 11 -1 16 -1c53 0 73 22 73 77c0 38 -17 59 -49 59c-28 0 -46 -21 -46 -58v-4h-40c2 63 32 96 88 96c53 0 87 -35 87 -97c0 -49 -19 -79 -53 -87c39 -13 57 -49 57 -106
c0 -76 -37 -119 -97 -119c-55 0 -88 36 -88 104v9h41zM135 -9l286 731h49l-286 -731h-49zM511 109h-125v33l121 257h42v-259h32v-31h-32v-109h-38v109zM422 140h89v66c0 45 2 98 8 159c-9 -25 -20 -50 -32 -78z" />
    <glyph glyph-name="threesuperior" unicode="&#xb3;" horiz-adv-x="257" 
d="M72 400v-9c0 -50 16 -75 51 -75c37 0 58 31 58 91c0 68 -19 94 -82 94c-5 0 -10 -1 -15 -1v36h17c55 0 76 23 76 83c0 40 -18 62 -51 62c-30 0 -48 -22 -48 -62v-4h-42c2 68 33 103 91 103c56 0 91 -38 91 -104c0 -52 -19 -85 -54 -94c41 -14 59 -51 59 -113
c0 -81 -39 -127 -102 -127c-57 0 -92 39 -92 111v9h43z" />
    <glyph glyph-name="trademark" unicode="&#x2122;" horiz-adv-x="833" 
d="M339 710v-25h-85v-234h-33v234h-87v25h205zM452 710l85 -215l79 215h50v-259h-29v234l-88 -234h-24l-93 234v-234h-29v259h49z" />
    <glyph glyph-name="twosuperior" unicode="&#xb2;" horiz-adv-x="257" 
d="M69 598h-41v6c0 74 35 114 95 114c55 0 96 -39 96 -98c0 -62 -51 -157 -135 -299h131v-36h-196c98 169 158 275 158 334c0 39 -22 63 -53 63c-36 0 -55 -26 -55 -77v-7z" />
    <glyph glyph-name="uacute" unicode="&#xfa;" horiz-adv-x="355" 
d="M52 479h59v-314c0 -82 15 -120 67 -120s66 38 66 120v314h59v-324c0 -111 -36 -164 -125 -164s-126 53 -126 164v324zM270 715l-105 -170h-36l82 170h59z" />
    <glyph glyph-name="ucircumflex" unicode="&#xfb;" horiz-adv-x="355" 
d="M52 479h59v-314c0 -82 15 -120 67 -120s66 38 66 120v314h59v-324c0 -111 -36 -164 -125 -164s-126 53 -126 164v324zM207 715l79 -170h-36l-72 128l-72 -128h-36l78 170h59z" />
    <glyph glyph-name="udieresis" unicode="&#xfc;" horiz-adv-x="355" 
d="M52 479h59v-314c0 -82 15 -120 67 -120s66 38 66 120v314h59v-324c0 -111 -36 -164 -125 -164s-126 53 -126 164v324zM115 654c23 0 40 -18 40 -40c0 -20 -18 -40 -40 -40c-21 0 -40 20 -40 40c0 22 18 40 40 40zM240 654c23 0 41 -18 41 -40c0 -20 -19 -40 -41 -40
c-21 0 -40 20 -40 40c0 22 18 40 40 40z" />
    <glyph glyph-name="ugrave" unicode="&#xf9;" horiz-adv-x="355" 
d="M52 479h59v-314c0 -82 15 -120 67 -120s66 38 66 120v314h59v-324c0 -111 -36 -164 -125 -164s-126 53 -126 164v324zM145 715l82 -170h-36l-105 170h59z" />
    <glyph glyph-name="yacute" unicode="&#xfd;" horiz-adv-x="306" 
d="M127 -6l-119 485h62l58 -276c10 -48 19 -95 26 -144c19 89 29 142 33 159l61 261h59l-172 -662h-58zM245 715l-105 -170h-36l82 170h59z" />
    <glyph glyph-name="ydieresis" unicode="&#xff;" horiz-adv-x="306" 
d="M127 -6l-119 485h62l58 -276c10 -48 19 -95 26 -144c19 89 29 142 33 159l61 261h59l-172 -662h-58zM90 654c23 0 40 -18 40 -40c0 -20 -18 -40 -40 -40c-21 0 -40 20 -40 40c0 22 18 40 40 40zM215 654c23 0 41 -18 41 -40c0 -20 -19 -40 -41 -40c-21 0 -40 20 -40 40
c0 22 18 40 40 40z" />
    <glyph glyph-name="zcaron" unicode="&#x17e;" horiz-adv-x="280" 
d="M203 430h-172v49h254l-204 -428h172v-51h-255zM68 707l72 -129l72 129h36l-79 -171h-59l-78 171h36z" />
    </font>
</defs>
</svg>
